HIERARCHY
ROOT Root
{
  OFFSET 0.0 0.0 0.0
  CHANNELS 6 Xposition Yposition Zposition Zrotation Yrotation Xrotation
  JOINT Hips
  {
    OFFSET 0.0 100.0 0.0
    CHANNELS 6 Xposition Yposition Zposition Zrotation Yrotation Xrotation
    JOINT Spine1
    {
      OFFSET -0.013727 5.003763 -0.053727
      CHANNELS 3 Zrotation Yrotation Xrotation
      JOINT Spine2
      {
        OFFSET -0.0 7.125301 -0.029825
        CHANNELS 3 Zrotation Yrotation Xrotation
        JOINT Chest
        {
          OFFSET -1e-06 7.550063 -0.815971
          CHANNELS 3 Zrotation Yrotation Xrotation
          JOINT Neck1
          {
            OFFSET -0.181677 26.311295 -0.553348
            CHANNELS 3 Zrotation Yrotation Xrotation
            JOINT Neck2
            {
              OFFSET -3e-06 7.709397 2.302585
              CHANNELS 3 Zrotation Yrotation Xrotation
              JOINT Head
              {
                OFFSET -5e-06 6.128916 1.953709
                CHANNELS 3 Zrotation Yrotation Xrotation
                JOINT HeadEnd
                {
                  OFFSET 0.003598 16.065403 -1.835379
                  CHANNELS 3 Zrotation Yrotation Xrotation
                }
                JOINT Jaw
                {
                  OFFSET 0.002637 0.475592 3.094941
                  CHANNELS 3 Zrotation Yrotation Xrotation
                }
                JOINT LeftEye
                {
                  OFFSET 3.206381 5.380205 7.586883
                  CHANNELS 3 Zrotation Yrotation Xrotation
                }
                JOINT RightEye
                {
                  OFFSET -3.22244 5.361869 7.558234
                  CHANNELS 3 Zrotation Yrotation Xrotation
                }
              }
            }
          }
          JOINT LeftShoulder
          {
            OFFSET 1.621652 23.237164 5.113413
            CHANNELS 3 Zrotation Yrotation Xrotation
            JOINT LeftArm
            {
              OFFSET 14.919846 2e-06 -5.502326
              CHANNELS 3 Zrotation Yrotation Xrotation
              JOINT LeftForeArm
              {
                OFFSET 28.739307 0.0 -0.002588
                CHANNELS 3 Zrotation Yrotation Xrotation
                JOINT LeftHand
                {
                  OFFSET 27.093981 -1e-06 0.002609
                  CHANNELS 3 Zrotation Yrotation Xrotation
                  JOINT LeftHandThumb1
                  {
                    OFFSET 2.276482 -1.392045 3.191413
                    CHANNELS 3 Zrotation Yrotation Xrotation
                    JOINT LeftHandThumb2
                    {
                      OFFSET 4.012836 -1.828127 1.641654
                      CHANNELS 3 Zrotation Yrotation Xrotation
                      JOINT LeftHandThumb3
                      {
                        OFFSET 2.798515 0.0 -3e-06
                        CHANNELS 3 Zrotation Yrotation Xrotation
                        JOINT LeftHandThumbEnd
                        {
                          OFFSET 3.180793 -4e-06 4e-06
                          CHANNELS 3 Zrotation Yrotation Xrotation
                        }
                      }
                    }
                  }
                  JOINT LeftHandIndex1
                  {
                    OFFSET 3.247555 -0.531998 2.296169
                    CHANNELS 3 Zrotation Yrotation Xrotation
                    JOINT LeftHandIndex2
                    {
                      OFFSET 6.364578 0.01206 0.1786
                      CHANNELS 3 Zrotation Yrotation Xrotation
                      JOINT LeftHandIndex3
                      {
                        OFFSET 3.662364 0.0 0.0
                        CHANNELS 3 Zrotation Yrotation Xrotation
                        JOINT LeftHandIndex4
                        {
                          OFFSET 2.329242 4e-06 4e-06
                          CHANNELS 3 Zrotation Yrotation Xrotation
                          JOINT LeftHandIndexEnd
                          {
                            OFFSET 2.759615 -0.180537 -0.113024
                            CHANNELS 3 Zrotation Yrotation Xrotation
                          }
                        }
                      }
                    }
                  }
                  JOINT LeftHandMiddle1
                  {
                    OFFSET 3.163495 0.240981 1.000332
                    CHANNELS 3 Zrotation Yrotation Xrotation
                    JOINT LeftHandMiddle2
                    {
                      OFFSET 6.19078 -0.259278 -1.002548
                      CHANNELS 3 Zrotation Yrotation Xrotation
                      JOINT LeftHandMiddle3
                      {
                        OFFSET 4.35652 -4e-06 -1e-06
                        CHANNELS 3 Zrotation Yrotation Xrotation
                        JOINT LeftHandMiddle4
                        {
                          OFFSET 2.996877 -8e-06 0.0
                          CHANNELS 3 Zrotation Yrotation Xrotation
                          JOINT LeftHandMiddleEnd
                          {
                            OFFSET 2.304287 -0.294569 -0.031741
                            CHANNELS 3 Zrotation Yrotation Xrotation
                          }
                        }
                      }
                    }
                  }
                  JOINT LeftHandRing1
                  {
                    OFFSET 2.882643 -0.053652 -0.322543
                    CHANNELS 3 Zrotation Yrotation Xrotation
                    JOINT LeftHandRing2
                    {
                      OFFSET 5.854541 -0.486202 -1.373841
                      CHANNELS 3 Zrotation Yrotation Xrotation
                      JOINT LeftHandRing3
                      {
                        OFFSET 4.350578 0.0 3e-06
                        CHANNELS 3 Zrotation Yrotation Xrotation
                        JOINT LeftHandRing4
                        {
                          OFFSET 2.651321 7e-06 2e-06
                          CHANNELS 3 Zrotation Yrotation Xrotation
                          JOINT LeftHandRingEnd
                          {
                            OFFSET 1.936105 0.077687 -7.1e-05
                            CHANNELS 3 Zrotation Yrotation Xrotation
                          }
                        }
                      }
                    }
                  }
                  JOINT LeftHandPinky1
                  {
                    OFFSET 2.8655 -0.310005 -1.600378
                    CHANNELS 3 Zrotation Yrotation Xrotation
                    JOINT LeftHandPinky2
                    {
                      OFFSET 5.087849 -1.331141 -1.77123
                      CHANNELS 3 Zrotation Yrotation Xrotation
                      JOINT LeftHandPinky3
                      {
                        OFFSET 3.070974 4e-06 0.0
                        CHANNELS 3 Zrotation Yrotation Xrotation
                        JOINT LeftHandPinky4
                        {
                          OFFSET 1.549672 0.0 1e-06
                          CHANNELS 3 Zrotation Yrotation Xrotation
                          JOINT LeftHandPinkyEnd
                          {
                            OFFSET 1.944893 -0.157802 0.057219
                            CHANNELS 3 Zrotation Yrotation Xrotation
                          }
                        }
                      }
                    }
                  }
                }
              }
            }
          }
          JOINT RightShoulder
          {
            OFFSET -1.380118 23.180309 5.214158
            CHANNELS 3 Zrotation Yrotation Xrotation
            JOINT RightArm
            {
              OFFSET -15.037196 1.2e-05 -5.545604
              CHANNELS 3 Zrotation Yrotation Xrotation
              JOINT RightForeArm
              {
                OFFSET -28.736639 2e-06 -0.002597
                CHANNELS 3 Zrotation Yrotation Xrotation
                JOINT RightHand
                {
                  OFFSET -27.133619 -0.0 0.002613
                  CHANNELS 3 Zrotation Yrotation Xrotation
                  JOINT RightHandThumb1
                  {
                    OFFSET -2.274032 -1.383988 3.163127
                    CHANNELS 3 Zrotation Yrotation Xrotation
                    JOINT RightHandThumb2
                    {
                      OFFSET -4.011429 -1.827466 1.640914
                      CHANNELS 3 Zrotation Yrotation Xrotation
                      JOINT RightHandThumb3
                      {
                        OFFSET -2.794935 -4e-06 -3e-06
                        CHANNELS 3 Zrotation Yrotation Xrotation
                        JOINT RightHandThumbEnd
                        {
                          OFFSET -3.183852 4e-06 1e-06
                          CHANNELS 3 Zrotation Yrotation Xrotation
                        }
                      }
                    }
                  }
                  JOINT RightHandIndex1
                  {
                    OFFSET -3.253266 -0.520057 2.282866
                    CHANNELS 3 Zrotation Yrotation Xrotation
                    JOINT RightHandIndex2
                    {
                      OFFSET -6.341917 0.012471 0.178266
                      CHANNELS 3 Zrotation Yrotation Xrotation
                      JOINT RightHandIndex3
                      {
                        OFFSET -3.654871 -8e-06 -0.0
                        CHANNELS 3 Zrotation Yrotation Xrotation
                        JOINT RightHandIndex4
                        {
                          OFFSET -2.327586 0.0 1e-06
                          CHANNELS 3 Zrotation Yrotation Xrotation
                          JOINT RightHandIndexEnd
                          {
                            OFFSET -2.76179 -0.180656 -0.113078
                            CHANNELS 3 Zrotation Yrotation Xrotation
                          }
                        }
                      }
                    }
                  }
                  JOINT RightHandMiddle1
                  {
                    OFFSET -3.168106 0.246593 1.00103
                    CHANNELS 3 Zrotation Yrotation Xrotation
                    JOINT RightHandMiddle2
                    {
                      OFFSET -6.180828 -0.258836 -1.000895
                      CHANNELS 3 Zrotation Yrotation Xrotation
                      JOINT RightHandMiddle3
                      {
                        OFFSET -4.348901 0.0 -0.0
                        CHANNELS 3 Zrotation Yrotation Xrotation
                        JOINT RightHandMiddle4
                        {
                          OFFSET -3.00024 -4e-06 -2e-06
                          CHANNELS 3 Zrotation Yrotation Xrotation
                          JOINT RightHandMiddleEnd
                          {
                            OFFSET -2.30252 -0.29437 -0.031706
                            CHANNELS 3 Zrotation Yrotation Xrotation
                          }
                        }
                      }
                    }
                  }
                  JOINT RightHandRing1
                  {
                    OFFSET -2.88569 -0.067952 -0.308858
                    CHANNELS 3 Zrotation Yrotation Xrotation
                    JOINT RightHandRing2
                    {
                      OFFSET -5.854198 -0.48613 -1.373731
                      CHANNELS 3 Zrotation Yrotation Xrotation
                      JOINT RightHandRing3
                      {
                        OFFSET -4.33881 -4e-06 -0.0
                        CHANNELS 3 Zrotation Yrotation Xrotation
                        JOINT RightHandRing4
                        {
                          OFFSET -2.654903 -4e-06 4e-06
                          CHANNELS 3 Zrotation Yrotation Xrotation
                          JOINT RightHandRingEnd
                          {
                            OFFSET -1.933568 0.077527 -5.2e-05
                            CHANNELS 3 Zrotation Yrotation Xrotation
                          }
                        }
                      }
                    }
                  }
                  JOINT RightHandPinky1
                  {
                    OFFSET -2.866425 -0.342796 -1.584145
                    CHANNELS 3 Zrotation Yrotation Xrotation
                    JOINT RightHandPinky2
                    {
                      OFFSET -5.091371 -1.332055 -1.772385
                      CHANNELS 3 Zrotation Yrotation Xrotation
                      JOINT RightHandPinky3
                      {
                        OFFSET -3.062664 -4e-06 1e-06
                        CHANNELS 3 Zrotation Yrotation Xrotation
                        JOINT RightHandPinky4
                        {
                          OFFSET -1.546529 4e-06 -2e-06
                          CHANNELS 3 Zrotation Yrotation Xrotation
                          JOINT RightHandPinkyEnd
                          {
                            OFFSET -1.945119 -0.157718 0.057211
                            CHANNELS 3 Zrotation Yrotation Xrotation
                          }
                        }
                      }
                    }
                  }
                }
              }
            }
          }
        }
      }
    }
    JOINT LeftLeg
    {
      OFFSET 10.043214 -8.434526 2.595655
      CHANNELS 3 Zrotation Yrotation Xrotation
      JOINT LeftShin
      {
        OFFSET -1e-06 -43.221752 -0.802913
        CHANNELS 3 Zrotation Yrotation Xrotation
        JOINT LeftFoot
        {
          OFFSET 1e-06 -42.155094 -3.481523
          CHANNELS 3 Zrotation Yrotation Xrotation
          JOINT LeftToeBase
          {
            OFFSET 0.0 -5.059472 13.231529
            CHANNELS 3 Zrotation Yrotation Xrotation
            JOINT LeftToeEnd
            {
              OFFSET -0.009607 -1.647619 6.513017
              CHANNELS 3 Zrotation Yrotation Xrotation
            }
          }
        }
      }
    }
    JOINT RightLeg
    {
      OFFSET -10.047278 -8.29526 2.620317
      CHANNELS 3 Zrotation Yrotation Xrotation
      JOINT RightShin
      {
        OFFSET 1e-06 -43.362206 -0.805556
        CHANNELS 3 Zrotation Yrotation Xrotation
        JOINT RightFoot
        {
          OFFSET 2e-06 -42.117393 -3.478398
          CHANNELS 3 Zrotation Yrotation Xrotation
          JOINT RightToeBase
          {
            OFFSET -0.0 -5.079609 13.284196
            CHANNELS 3 Zrotation Yrotation Xrotation
            JOINT RightToeEnd
            {
              OFFSET 0.009532 -1.634378 6.460591
              CHANNELS 3 Zrotation Yrotation Xrotation
            }
          }
        }
      }
    }
  }
}
MOTION
Frames: 4
Frame Time: 0.03333333333333333
0.0 0.0 0.0 0.0 -0.0 0.0 -18.723648 88.399353 134.262253 0.435977 2.724244 17.318174 0.318803 -0.239129 7.34208 0.211425 -0.763883 -1.515706 3.069457 -2.875659 14.646427 -0.499599 2.968795 -13.587722 -1.407395 -2.891662 -3.506439 0.874088 -4.459285 -14.970199 7.7e-05 -2.2e-05 6e-06 -0.007085 -0.055812 -0.071655 0.659035 -3.779314 -10.770787 -0.680255 3.657291 -10.841479 -6.871875 -4.752172 16.505997 -59.978283 4.372142 16.131392 -173.742004 -83.068138 175.814224 14.530855 -3.271123 12.901403 -5.882138 9.86109 0.703075 -10.936744 -0.360415 7.156487 0.0 8.774902 3e-06 -16.066986 18.636553 5.799831 -1.844043 2.498508 -2.507303 -10.163671 4.678985 4.621054 -20.976231 -4e-06 -2e-06 -21.226631 2.451725 -3.594121 -1e-06 -7e-06 -3e-06 -1.362704 2.240861 -0.746357 -21.335039 0.584847 3.008302 -13.821342 -0.0 2e-06 -23.887609 -0.249085 -0.839557 -60.978825 2.533543 -0.878799 -0.294051 1.679767 0.833222 -14.218264 0.093121 1.300555 -34.212429 -0.287561 0.967184 -20.033453 0.964565 1.212879 -3e-06 -3e-06 0.0 -3.440479 0.788354 0.501577 -15.928179 -3.16746 2.999739 -6.338882 2e-06 2e-06 -18.123749 3.648182 -4.905788 -5e-06 0.0 -3e-06 17.4027 11.024177 18.070108 50.853596 17.906311 10.410787 176.005081 83.450188 174.937561 -5.130667 3.028378 28.870441 2.24349 -5.254943 -3.180016 14.282819 -0.826669 6.952597 -1.2e-05 -12.690642 -1e-06 16.48003 -17.870811 2.126724 1.665669 -1.955923 -2.878311 4.727812 -4.170604 4.993905 11.020556 1e-05 -1.5e-05 12.109135 -3.735719 -2.866853 -1e-06 1e-06 1e-06 1.291995 -1.928579 -1.498104 14.800155 0.567507 3.865592 14.242617 -1.341724 -6.660703 19.632116 0.143978 -0.648295 49.712166 -0.798673 -6.457665 0.353039 -1.51119 -0.031958 20.222818 3.68437 2.316619 18.787327 2.2e-05 -1.6e-05 10.751657 -0.479858 1.397918 -0.0 -3e-06 -0.0 3.273843 0.305892 -0.580153 21.48683 11.83047 2.266146 8.162946 9e-06 -7e-06 18.399195 -3.798947 -4.94063 3e-06 1e-06 -1e-06 0.382302 -2.468667 -52.283138 0.225773 0.363836 83.839081 3.820122 1.934459 -12.49479 1.802494 -1.856147 -5.977407 0.0 0.0 3e-06 5.190282 -2.573188 -30.629566 -0.219587 -0.055145 56.22403 6.185678 -13.371628 -35.321404 -1.420977 1.074419 -3.399775 -0.0 -1e-06 -5e-06 
0.0 0.0 0.0 0.0 -0.0 0.0 -19.624573 88.059792 142.652695 2.335745 1.008903 17.504208 -0.590355 -0.015259 7.389609 -0.199972 0.311887 -1.375457 2.206656 -1.805681 14.29736 -1.47692 2.585966 -13.616924 -1.512533 -3.295542 -3.569521 1.390297 -5.337614 -14.985225 7.7e-05 -2.2e-05 6e-06 -0.011705 0.020793 -0.114599 0.653089 -3.714165 -10.832959 -0.685729 3.741348 -10.91969 -7.214478 -3.175248 16.762653 -59.248646 9.341134 15.7954 -173.475876 -78.492081 175.960709 14.817218 -3.846278 9.810019 -5.882039 9.861176 0.702931 -10.936709 -0.360404 7.156454 -1e-06 8.774894 1.1e-05 -16.127226 18.512226 5.590902 -1.844047 2.498505 -2.5073 -10.163669 4.678982 4.621052 -20.9762 -1e-05 -4.1e-05 -21.226591 2.451698 -3.594141 -1e-06 -5e-06 -2e-06 -1.362712 2.240858 -0.746347 -21.335022 0.584842 3.008273 -13.821318 -7e-06 -2.9e-05 -23.887552 -0.249126 -0.839603 -61.094658 2.216026 -0.802726 -0.29406 1.679768 0.833235 -14.218254 0.093123 1.300533 -34.212353 -0.287595 0.96711 -20.033407 0.96452 1.212834 -0.0 -1e-06 1e-06 -3.440485 0.788358 0.501579 -15.928165 -3.167459 2.999708 -6.338873 -0.0 -1e-05 -18.123728 3.648163 -4.90581 1e-06 4e-06 -6e-06 15.174287 11.934372 17.65674 54.490524 24.354879 12.008796 178.31868 78.246857 177.027496 -3.34041 4.446126 29.517315 2.243526 -5.254927 -3.179839 14.282856 -0.82671 6.95268 1.1e-05 -12.690665 1.4e-05 16.105698 -17.624634 2.535295 1.665671 -1.955923 -2.87832 4.727824 -4.170616 4.993896 11.020584 -1.1e-05 -4e-06 12.109186 -3.735761 -2.866856 1e-06 3e-06 -0.0 1.292006 -1.928593 -1.498115 14.800151 0.567498 3.865592 14.24265 -1.341752 -6.660714 19.632185 0.143917 -0.648323 49.737782 -0.922458 -5.991862 0.353059 -1.511211 -0.031967 20.222815 3.684366 2.316621 18.787369 -2.1e-05 -1.6e-05 10.751689 -0.479885 1.397921 0.0 -0.0 1e-06 3.273877 0.30585 -0.580163 21.48678 11.830501 2.266139 8.162967 -1.2e-05 -3e-06 18.399269 -3.799013 -4.940666 3e-06 2e-06 -0.0 -2.40173 -1.582753 -61.617603 0.334909 0.349385 76.151596 0.842663 1.944754 -12.960857 1.778748 -1.779593 -5.576894 0.0 0.0 2e-06 2.93126 -4.227918 -23.4431 -0.298571 -0.01737 53.391346 6.492299 -10.834262 -34.778641 -1.433083 0.982567 -5.785391 0.0 -0.0 -4e-06 
0.0 0.0 0.0 0.0 -0.0 0.0 -20.333057 87.941193 151.57103 4.695742 -1.257104 18.159552 -1.626597 0.327057 7.021334 -0.670543 1.389446 -1.312746 0.613104 -0.488294 13.6092 -2.46415 2.244599 -13.603 -1.633906 -3.989424 -3.555432 2.278834 -6.384332 -15.1206 7.7e-05 -2.2e-05 6e-06 -0.018566 0.089775 -0.115755 0.654576 -3.669477 -10.868057 -0.704305 3.836352 -10.975547 -7.553936 -1.59755 16.755255 -57.86837 15.427581 15.083925 -174.229004 -71.415062 176.808365 14.664198 -4.109938 6.810642 -5.882194 9.861262 0.702499 -10.93693 -0.360643 7.156116 -1.2e-05 8.77482 -2e-05 -16.11824 18.530283 5.560041 -1.844027 2.498505 -2.507266 -10.163584 4.678951 4.621119 -20.976023 2.8e-05 3.7e-05 -21.226336 2.451749 -3.594003 -1e-06 -4e-06 -0.0 -1.362677 2.240796 -0.746318 -21.334881 0.58493 3.008363 -13.821216 1.9e-05 2.4e-05 -23.887255 -0.249012 -0.839473 -61.254993 2.152208 -0.946625 -0.294017 1.679679 0.83326 -14.218184 0.093226 1.300618 -34.212097 -0.287501 0.967219 -20.033279 0.964574 1.212867 -1e-06 1e-06 2e-06 -3.44037 0.788227 0.501684 -15.928167 -3.167297 2.999732 -6.33883 2e-06 1.1e-05 -18.123497 3.648221 -4.905655 -3e-06 1e-06 -3e-06 11.678538 12.491695 16.848021 59.510502 29.661818 13.763933 177.176468 72.734543 175.573593 -2.265849 4.555461 29.839201 2.243528 -5.255176 -3.180482 14.282895 -0.826491 6.952333 -2.5e-05 -12.690534 -7e-06 15.837725 -17.623112 2.862243 1.66566 -1.955918 -2.878277 4.727771 -4.170555 4.993938 11.020483 2.3e-05 1e-06 12.108994 -3.73566 -2.866753 3e-06 -1e-06 -4e-06 1.29196 -1.928501 -1.498061 14.800082 0.567443 3.865611 14.242503 -1.341711 -6.660613 19.631889 0.143984 -0.648196 49.912357 -1.142464 -5.910055 0.353001 -1.511088 -0.031914 20.222738 3.684263 2.316632 18.787191 3.9e-05 0.0 10.7516 -0.479844 1.397904 0.0 -0.0 3e-06 3.273727 0.306048 -0.580057 21.486811 11.830254 2.266118 8.16289 1.7e-05 -3e-06 18.399004 -3.798923 -4.940533 3e-06 1e-06 -1e-06 -4.809774 -0.878375 -67.872917 0.355552 0.243991 64.55175 -1.937002 2.090769 -12.336539 1.771139 -1.811039 -4.983401 0.0 0.0 4e-06 -0.584495 -5.857652 -14.958396 -0.337242 0.280122 46.809338 6.545404 -8.635407 -32.007515 -1.46204 0.909106 -9.479588 0.0 -0.0 -2e-06 
0.0 0.0 0.0 0.0 -0.0 0.0 -20.935665 88.21669 161.602829 7.777871 -3.641479 18.807127 -2.887088 0.579427 6.308023 -1.229874 2.364473 -1.291749 -1.945521 1.149845 12.83523 -3.077292 2.006326 -13.33558 -1.960729 -4.942658 -3.50215 3.681376 -7.692681 -15.61842 7.7e-05 -2.2e-05 7e-06 -0.024147 0.093516 -0.088157 0.656743 -3.698992 -10.941877 -0.720855 3.875473 -11.068197 -7.586997 -0.361226 16.958307 -56.510841 21.53657 13.319446 -175.430298 -64.035149 177.500168 14.513831 -4.29727 3.534509 -5.882109 9.861227 0.702572 -10.936852 -0.360577 7.156201 -1.1e-05 8.774845 -1e-05 -15.893522 18.633118 5.709918 -1.844032 2.49851 -2.507275 -10.163609 4.678964 4.621095 -20.976061 2e-05 -1.3e-05 -21.2264 2.451725 -3.594068 2e-06 -5e-06 -1e-06 -1.362693 2.240825 -0.746326 -21.334915 0.584911 3.008322 -13.821239 8e-06 -6e-06 -23.887316 -0.249072 -0.839545 -61.034115 2.29847 -1.026127 -0.294038 1.679724 0.833253 -14.218197 0.093199 1.300587 -34.212139 -0.287545 0.967148 -20.033297 0.964542 1.212841 -1e-06 -2e-06 -3e-06 -3.440413 0.788287 0.50165 -15.928151 -3.16735 2.999727 -6.338835 6e-06 -1e-06 -18.123549 3.648195 -4.905732 -3e-06 4e-06 -3e-06 7.687056 12.643116 15.687953 65.746742 32.779785 15.980259 176.470367 67.859764 174.603195 -2.360114 4.326459 30.326982 2.243499 -5.25486 -3.180022 14.282866 -0.826509 6.952512 5e-06 -12.690578 -3.3e-05 16.038666 -17.784214 2.938473 1.665669 -1.955931 -2.878303 4.727799 -4.170595 4.993898 11.020534 5e-06 -1.2e-05 12.109089 -3.735702 -2.86685 0.0 0.0 2e-06 1.291988 -1.928569 -1.498122 14.800117 0.567457 3.865619 14.242568 -1.34174 -6.660693 19.631994 0.143952 -0.64829 50.369511 -1.318489 -5.987449 0.353037 -1.511172 -0.031981 20.22278 3.684289 2.316657 18.787268 1.5e-05 -1.2e-05 10.751632 -0.479864 1.397925 0.0 1e-06 -1e-06 3.273811 0.305914 -0.580176 21.486816 11.830324 2.266201 8.162921 9e-06 0.0 18.399109 -3.798943 -4.940609 3e-06 -0.0 -3e-06 -6.613329 -0.960377 -70.800201 0.150499 0.123203 51.553677 -4.531627 2.822037 -13.087908 1.705015 -2.039904 -5.639753 -0.0 0.0 -1e-06 -5.697106 -7.403472 -4.39781 -0.311094 0.737033 35.56284 6.06034 -7.084593 -24.590145 -1.472655 0.751726 -16.039417 -0.0 -0.0 2e-06 
